<svg width="28" height="28" viewBox="0 0 28 28" fill="none" xmlns="http://www.w3.org/2000/svg">
<path d="M14 24.5C8.20085 24.5 3.5 19.7991 3.5 14C3.5 8.20085 8.20085 3.5 14 3.5C19.7991 3.5 24.5 8.20085 24.5 14C24.5 19.7991 19.7991 24.5 14 24.5ZM14 22.4C16.2278 22.4 18.3644 21.515 19.9397 19.9397C21.515 18.3644 22.4 16.2278 22.4 14C22.4 11.7722 21.515 9.63561 19.9397 8.0603C18.3644 6.485 16.2278 5.6 14 5.6C11.7722 5.6 9.63561 6.485 8.0603 8.0603C6.485 9.63561 5.6 11.7722 5.6 14C5.6 16.2278 6.485 18.3644 8.0603 19.9397C9.63561 21.515 11.7722 22.4 14 22.4ZM12.95 14.8316C12.3973 14.5904 11.9445 14.1662 11.6677 13.6304C11.391 13.0946 11.3072 12.4798 11.4304 11.8894C11.5536 11.2991 11.8763 10.7692 12.3443 10.3888C12.8123 10.0084 13.3969 9.80075 14 9.80075C14.6031 9.80075 15.1877 10.0084 15.6557 10.3888C16.1237 10.7692 16.4464 11.2991 16.5696 11.8894C16.6928 12.4798 16.609 13.0946 16.3323 13.6304C16.0555 14.1662 15.6027 14.5904 15.05 14.8316V18.2H12.95V14.8316Z" fill="#525866"/>
</svg>
