<svg width="656" height="40" viewBox="0 0 656 40" fill="none" xmlns="http://www.w3.org/2000/svg">
<path d="M0 20C0 8.95431 8.95431 0 20 0C31.0457 0 40 8.95431 40 20C40 31.0457 31.0457 40 20 40C8.95431 40 0 31.0457 0 20Z" fill="#EBF1FF"/>
<path d="M15.1705 26.1932C14.2727 26.1894 13.5057 25.9527 12.8693 25.483C12.233 25.0133 11.7462 24.3295 11.4091 23.4318C11.072 22.5341 10.9034 21.4527 10.9034 20.1875C10.9034 18.9261 11.072 17.8485 11.4091 16.9545C11.75 16.0606 12.2386 15.3788 12.875 14.9091C13.5152 14.4394 14.2803 14.2045 15.1705 14.2045C16.0606 14.2045 16.8239 14.4413 17.4602 14.9148C18.0966 15.3845 18.5833 16.0663 18.9205 16.9602C19.2614 17.8504 19.4318 18.9261 19.4318 20.1875C19.4318 21.4564 19.2633 22.5398 18.9261 23.4375C18.589 24.3314 18.1023 25.0152 17.4659 25.4886C16.8295 25.9583 16.0644 26.1932 15.1705 26.1932ZM15.1705 24.6761C15.9583 24.6761 16.5739 24.2917 17.017 23.5227C17.464 22.7538 17.6875 21.642 17.6875 20.1875C17.6875 19.2216 17.5852 18.4053 17.3807 17.7386C17.1799 17.0682 16.8902 16.5606 16.5114 16.2159C16.1364 15.8674 15.6894 15.6932 15.1705 15.6932C14.3864 15.6932 13.7708 16.0795 13.3239 16.8523C12.8769 17.625 12.6515 18.7367 12.6477 20.1875C12.6477 21.1572 12.7481 21.9773 12.9489 22.6477C13.1534 23.3144 13.4432 23.8201 13.8182 24.1648C14.1932 24.5057 14.6439 24.6761 15.1705 24.6761ZM20.4656 22.9659H22.244C22.2819 23.3258 22.405 23.6326 22.6134 23.8864C22.8255 24.1364 23.102 24.3258 23.4429 24.4545C23.7838 24.5833 24.1626 24.6477 24.5793 24.6477C25.0262 24.6477 25.4259 24.572 25.7781 24.4205C26.1342 24.2689 26.4145 24.0455 26.619 23.75C26.8236 23.4545 26.9259 23.0909 26.9259 22.6591C26.9259 22.2727 26.833 21.9167 26.6474 21.5909C26.4618 21.2652 26.1702 21.0038 25.7724 20.8068C25.3747 20.6098 24.8558 20.5114 24.2156 20.5114H23.1759V19.1818L25.9713 15.9545V15.8693H21.0395V14.3636H28.2668V15.6364L25.1531 19.2045V19.2955C25.691 19.3295 26.1777 19.4413 26.6134 19.6307C27.0527 19.8201 27.4277 20.0701 27.7384 20.3807C28.049 20.6875 28.2876 21.0398 28.4543 21.4375C28.6209 21.8352 28.7043 22.2614 28.7043 22.7159C28.7043 23.3864 28.5262 23.9811 28.1702 24.5C27.8141 25.0189 27.3236 25.4261 26.6986 25.7216C26.0774 26.0133 25.3652 26.1591 24.5622 26.1591C23.816 26.1591 23.1399 26.0303 22.5338 25.7727C21.9315 25.5152 21.4448 25.1477 21.0736 24.6705C20.7062 24.1932 20.5035 23.625 20.4656 22.9659Z" fill="#375DFB"/>
<path d="M53.1186 25.5V15.3182H59.5021V16.6406H54.6548V19.7429H59.169V21.0604H54.6548V24.1776H59.5618V25.5H53.1186ZM62.8373 20.9659V25.5H61.3508V17.8636H62.7777V19.1065H62.8721C63.0478 18.7022 63.3229 18.3774 63.6974 18.1321C64.0753 17.8868 64.5509 17.7642 65.1243 17.7642C65.6446 17.7642 66.1004 17.8736 66.4915 18.0923C66.8826 18.3078 67.1858 18.6293 67.4013 19.0568C67.6167 19.4844 67.7244 20.013 67.7244 20.6428V25.5H66.2379V20.8217C66.2379 20.2682 66.0937 19.8357 65.8054 19.5241C65.517 19.2093 65.121 19.0518 64.6172 19.0518C64.2725 19.0518 63.9659 19.1264 63.6974 19.2756C63.4323 19.4247 63.2218 19.6435 63.066 19.9318C62.9136 20.2169 62.8373 20.5616 62.8373 20.9659ZM73.1987 17.8636V19.0568H69.0275V17.8636H73.1987ZM70.1461 16.0341H71.6326V23.2578C71.6326 23.5462 71.6757 23.7633 71.7619 23.9091C71.848 24.0516 71.9591 24.1494 72.095 24.2024C72.2342 24.2521 72.385 24.277 72.5474 24.277C72.6667 24.277 72.7711 24.2687 72.8606 24.2521C72.9501 24.2356 73.0197 24.2223 73.0694 24.2124L73.3379 25.4403C73.2517 25.4735 73.1291 25.5066 72.97 25.5398C72.8109 25.5762 72.612 25.5961 72.3734 25.5994C71.9823 25.6061 71.6177 25.5365 71.2796 25.3906C70.9416 25.2448 70.6681 25.0194 70.4593 24.7145C70.2505 24.4096 70.1461 24.0268 70.1461 23.5661V16.0341ZM77.9682 25.6541C77.2158 25.6541 76.5678 25.4934 76.0243 25.1719C75.484 24.8471 75.0664 24.3913 74.7714 23.8047C74.4798 23.2147 74.3339 22.5237 74.3339 21.7315C74.3339 20.9493 74.4798 20.2599 74.7714 19.6634C75.0664 19.0668 75.4774 18.6011 76.0044 18.2663C76.5347 17.9316 77.1545 17.7642 77.8638 17.7642C78.2946 17.7642 78.7123 17.8355 79.1166 17.978C79.521 18.1205 79.8839 18.3442 80.2054 18.6491C80.5269 18.9541 80.7804 19.3501 80.966 19.8374C81.1516 20.3213 81.2444 20.9096 81.2444 21.6023V22.1293H75.1741V21.0156H79.7878C79.7878 20.6245 79.7082 20.2782 79.5491 19.9766C79.39 19.6716 79.1663 19.4313 78.878 19.2557C78.5929 19.08 78.2582 18.9922 77.8737 18.9922C77.4561 18.9922 77.0915 19.0949 76.78 19.3004C76.4717 19.5026 76.2331 19.7678 76.0641 20.0959C75.8983 20.4207 75.8155 20.7737 75.8155 21.1548V22.0249C75.8155 22.5353 75.905 22.9695 76.0839 23.3274C76.2662 23.6854 76.5198 23.9588 76.8446 24.1477C77.1694 24.3333 77.5489 24.4261 77.9831 24.4261C78.2648 24.4261 78.5217 24.3864 78.7537 24.3068C78.9857 24.224 79.1862 24.1013 79.3552 23.9389C79.5243 23.7765 79.6535 23.576 79.743 23.3374L81.15 23.5909C81.0373 24.0052 80.8351 24.3681 80.5435 24.6797C80.2551 24.9879 79.8922 25.2282 79.4547 25.4006C79.0205 25.5696 78.525 25.6541 77.9682 25.6541ZM82.8098 25.5V17.8636H84.2466V19.0767H84.3261C84.4653 18.6657 84.7106 18.3426 85.0619 18.1072C85.4165 17.8686 85.8176 17.7493 86.265 17.7493C86.3578 17.7493 86.4672 17.7526 86.5932 17.7592C86.7224 17.7659 86.8235 17.7741 86.8964 17.7841V19.206C86.8368 19.1894 86.7307 19.1712 86.5782 19.1513C86.4258 19.1281 86.2733 19.1165 86.1209 19.1165C85.7695 19.1165 85.4563 19.1911 85.1812 19.3402C84.9094 19.486 84.694 19.6899 84.5349 19.9517C84.3758 20.2102 84.2963 20.5052 84.2963 20.8366V25.5H82.8098ZM92.6595 28.3636C92.4375 28.3636 92.2353 28.3454 92.053 28.3089C91.8707 28.2758 91.7348 28.2393 91.6453 28.1996L92.0033 26.9815C92.2751 27.0545 92.517 27.0859 92.7291 27.076C92.9413 27.0661 93.1285 26.9865 93.2909 26.8374C93.4566 26.6882 93.6025 26.4446 93.7284 26.1065L93.9124 25.5994L91.1183 17.8636H92.7092L94.6432 23.7898H94.7227L96.6567 17.8636H98.2526L95.1056 26.5192C94.9597 26.9169 94.7741 27.2533 94.5487 27.5284C94.3234 27.8068 94.0549 28.0156 93.7433 28.1548C93.4318 28.294 93.0705 28.3636 92.6595 28.3636ZM102.522 25.6541C101.807 25.6541 101.182 25.4901 100.648 25.1619C100.115 24.8338 99.7002 24.3748 99.4053 23.7848C99.1103 23.1948 98.9628 22.5054 98.9628 21.7166C98.9628 20.9245 99.1103 20.2318 99.4053 19.6385C99.7002 19.0452 100.115 18.5845 100.648 18.2564C101.182 17.9283 101.807 17.7642 102.522 17.7642C103.238 17.7642 103.863 17.9283 104.397 18.2564C104.93 18.5845 105.345 19.0452 105.64 19.6385C105.935 20.2318 106.082 20.9245 106.082 21.7166C106.082 22.5054 105.935 23.1948 105.64 23.7848C105.345 24.3748 104.93 24.8338 104.397 25.1619C103.863 25.4901 103.238 25.6541 102.522 25.6541ZM102.527 24.4062C102.991 24.4062 103.376 24.2836 103.681 24.0384C103.986 23.7931 104.211 23.4666 104.357 23.0589C104.506 22.6513 104.581 22.2022 104.581 21.7116C104.581 21.2244 104.506 20.777 104.357 20.3693C104.211 19.9583 103.986 19.6286 103.681 19.38C103.376 19.1314 102.991 19.0071 102.527 19.0071C102.06 19.0071 101.672 19.1314 101.364 19.38C101.059 19.6286 100.832 19.9583 100.683 20.3693C100.537 20.777 100.464 21.2244 100.464 21.7116C100.464 22.2022 100.537 22.6513 100.683 23.0589C100.832 23.4666 101.059 23.7931 101.364 24.0384C101.672 24.2836 102.06 24.4062 102.527 24.4062ZM112.495 22.3331V17.8636H113.986V25.5H112.525V24.1776H112.445C112.269 24.5852 111.988 24.925 111.6 25.1967C111.215 25.4652 110.736 25.5994 110.163 25.5994C109.673 25.5994 109.238 25.4917 108.86 25.2763C108.486 25.0575 108.191 24.7344 107.976 24.3068C107.763 23.8793 107.657 23.3506 107.657 22.7209V17.8636H109.144V22.5419C109.144 23.0623 109.288 23.4766 109.576 23.7848C109.865 24.093 110.239 24.2472 110.7 24.2472C110.978 24.2472 111.255 24.1776 111.53 24.0384C111.809 23.8991 112.039 23.6887 112.221 23.407C112.407 23.1252 112.498 22.7673 112.495 22.3331ZM115.9 25.5V17.8636H117.336V19.0767H117.416C117.555 18.6657 117.8 18.3426 118.152 18.1072C118.506 17.8686 118.907 17.7493 119.355 17.7493C119.448 17.7493 119.557 17.7526 119.683 17.7592C119.812 17.7659 119.913 17.7741 119.986 17.7841V19.206C119.927 19.1894 119.82 19.1712 119.668 19.1513C119.516 19.1281 119.363 19.1165 119.211 19.1165C118.859 19.1165 118.546 19.1911 118.271 19.3402C117.999 19.486 117.784 19.6899 117.625 19.9517C117.466 20.2102 117.386 20.5052 117.386 20.8366V25.5H115.9ZM124.929 25.5V15.3182H126.415V19.1016H126.505C126.591 18.9425 126.715 18.7585 126.878 18.5497C127.04 18.3409 127.266 18.1586 127.554 18.0028C127.842 17.8438 128.223 17.7642 128.697 17.7642C129.314 17.7642 129.864 17.92 130.348 18.2315C130.832 18.5431 131.211 18.9922 131.487 19.5788C131.765 20.1655 131.904 20.8714 131.904 21.6967C131.904 22.522 131.767 23.2296 131.491 23.8196C131.216 24.4062 130.839 24.8587 130.358 25.1768C129.877 25.4917 129.329 25.6491 128.712 25.6491C128.248 25.6491 127.869 25.5713 127.574 25.4155C127.282 25.2597 127.054 25.0774 126.888 24.8686C126.722 24.6598 126.594 24.4742 126.505 24.3118H126.381V25.5H124.929ZM126.386 21.6818C126.386 22.2187 126.464 22.6894 126.619 23.0938C126.775 23.4981 127 23.8146 127.295 24.0433C127.59 24.2687 127.952 24.3814 128.379 24.3814C128.823 24.3814 129.195 24.2637 129.493 24.0284C129.791 23.7898 130.017 23.4666 130.169 23.0589C130.325 22.6513 130.403 22.1922 130.403 21.6818C130.403 21.178 130.326 20.7256 130.174 20.3246C130.025 19.9235 129.799 19.607 129.498 19.375C129.2 19.143 128.827 19.027 128.379 19.027C127.948 19.027 127.584 19.138 127.286 19.3601C126.991 19.5821 126.767 19.892 126.614 20.2898C126.462 20.6875 126.386 21.1515 126.386 21.6818ZM133.489 25.5V17.8636H134.976V25.5H133.489ZM134.24 16.6854C133.982 16.6854 133.759 16.5992 133.574 16.4268C133.392 16.2512 133.3 16.0424 133.3 15.8004C133.3 15.5552 133.392 15.3464 133.574 15.174C133.759 14.9983 133.982 14.9105 134.24 14.9105C134.499 14.9105 134.719 14.9983 134.901 15.174C135.087 15.3464 135.18 15.5552 135.18 15.8004C135.18 16.0424 135.087 16.2512 134.901 16.4268C134.719 16.5992 134.499 16.6854 134.24 16.6854ZM138.378 15.3182V25.5H136.892V15.3182H138.378ZM141.78 15.3182V25.5H140.294V15.3182H141.78ZM143.696 25.5V17.8636H145.183V25.5H143.696ZM144.447 16.6854C144.189 16.6854 143.966 16.5992 143.781 16.4268C143.599 16.2512 143.507 16.0424 143.507 15.8004C143.507 15.5552 143.599 15.3464 143.781 15.174C143.966 14.9983 144.189 14.9105 144.447 14.9105C144.706 14.9105 144.926 14.9983 145.108 15.174C145.294 15.3464 145.387 15.5552 145.387 15.8004C145.387 16.0424 145.294 16.2512 145.108 16.4268C144.926 16.5992 144.706 16.6854 144.447 16.6854ZM148.585 20.9659V25.5H147.099V17.8636H148.525V19.1065H148.62C148.796 18.7022 149.071 18.3774 149.445 18.1321C149.823 17.8868 150.299 17.7642 150.872 17.7642C151.392 17.7642 151.848 17.8736 152.239 18.0923C152.63 18.3078 152.934 18.6293 153.149 19.0568C153.365 19.4844 153.472 20.013 153.472 20.6428V25.5H151.986V20.8217C151.986 20.2682 151.842 19.8357 151.553 19.5241C151.265 19.2093 150.869 19.0518 150.365 19.0518C150.02 19.0518 149.714 19.1264 149.445 19.2756C149.18 19.4247 148.97 19.6435 148.814 19.9318C148.661 20.2169 148.585 20.5616 148.585 20.9659ZM158.584 28.5227C157.977 28.5227 157.455 28.4432 157.017 28.2841C156.583 28.125 156.229 27.9145 155.954 27.6527C155.678 27.3909 155.473 27.1042 155.337 26.7926L156.615 26.2656C156.704 26.4115 156.824 26.5656 156.973 26.728C157.125 26.8937 157.331 27.0346 157.589 27.1506C157.851 27.2666 158.187 27.3246 158.598 27.3246C159.162 27.3246 159.628 27.187 159.995 26.9119C160.363 26.6402 160.547 26.206 160.547 25.6094V24.108H160.453C160.363 24.2704 160.234 24.451 160.065 24.6499C159.899 24.8487 159.671 25.0211 159.379 25.1669C159.087 25.3127 158.708 25.3857 158.241 25.3857C157.637 25.3857 157.094 25.2448 156.61 24.9631C156.129 24.678 155.748 24.2588 155.466 23.7053C155.188 23.1484 155.049 22.464 155.049 21.652C155.049 20.84 155.186 20.1439 155.461 19.5639C155.74 18.9839 156.121 18.5398 156.605 18.2315C157.089 17.92 157.637 17.7642 158.25 17.7642C158.724 17.7642 159.107 17.8438 159.399 18.0028C159.691 18.1586 159.918 18.3409 160.08 18.5497C160.246 18.7585 160.373 18.9425 160.463 19.1016H160.572V17.8636H162.029V25.669C162.029 26.3253 161.876 26.8639 161.571 27.2848C161.267 27.7057 160.854 28.0173 160.334 28.2195C159.816 28.4216 159.233 28.5227 158.584 28.5227ZM158.569 24.1527C158.996 24.1527 159.357 24.0533 159.652 23.8544C159.951 23.6522 160.176 23.3639 160.329 22.9893C160.484 22.6115 160.562 22.1591 160.562 21.6321C160.562 21.1184 160.486 20.666 160.334 20.2749C160.181 19.8838 159.957 19.5788 159.662 19.3601C159.367 19.138 159.003 19.027 158.569 19.027C158.121 19.027 157.748 19.143 157.45 19.375C157.152 19.6037 156.926 19.9152 156.774 20.3097C156.625 20.7041 156.55 21.1449 156.55 21.6321C156.55 22.1326 156.626 22.5717 156.779 22.9496C156.931 23.3274 157.157 23.6224 157.455 23.8345C157.757 24.0466 158.128 24.1527 158.569 24.1527ZM167.56 25.5V17.8636H169.046V25.5H167.56ZM168.31 16.6854C168.052 16.6854 167.83 16.5992 167.644 16.4268C167.462 16.2512 167.371 16.0424 167.371 15.8004C167.371 15.5552 167.462 15.3464 167.644 15.174C167.83 14.9983 168.052 14.9105 168.31 14.9105C168.569 14.9105 168.789 14.9983 168.971 15.174C169.157 15.3464 169.25 15.5552 169.25 15.8004C169.25 16.0424 169.157 16.2512 168.971 16.4268C168.789 16.5992 168.569 16.6854 168.31 16.6854ZM172.448 20.9659V25.5H170.962V17.8636H172.389V19.1065H172.483C172.659 18.7022 172.934 18.3774 173.308 18.1321C173.686 17.8868 174.162 17.7642 174.735 17.7642C175.256 17.7642 175.711 17.8736 176.102 18.0923C176.494 18.3078 176.797 18.6293 177.012 19.0568C177.228 19.4844 177.335 20.013 177.335 20.6428V25.5H175.849V20.8217C175.849 20.2682 175.705 19.8357 175.416 19.5241C175.128 19.2093 174.732 19.0518 174.228 19.0518C173.884 19.0518 173.577 19.1264 173.308 19.2756C173.043 19.4247 172.833 19.6435 172.677 19.9318C172.525 20.2169 172.448 20.5616 172.448 20.9659ZM182.879 17.8636V19.0568H178.564V17.8636H182.879ZM179.747 25.5V16.9787C179.747 16.5014 179.852 16.1053 180.06 15.7905C180.269 15.4723 180.546 15.2353 180.891 15.0795C181.235 14.9205 181.61 14.8409 182.014 14.8409C182.313 14.8409 182.568 14.8658 182.78 14.9155C182.992 14.9619 183.149 15.005 183.252 15.0447L182.904 16.2479C182.835 16.228 182.745 16.2048 182.636 16.1783C182.526 16.1484 182.394 16.1335 182.238 16.1335C181.877 16.1335 181.618 16.223 181.462 16.402C181.31 16.581 181.234 16.8395 181.234 17.1776V25.5H179.747ZM187.245 25.6541C186.529 25.6541 185.904 25.4901 185.371 25.1619C184.837 24.8338 184.423 24.3748 184.128 23.7848C183.833 23.1948 183.685 22.5054 183.685 21.7166C183.685 20.9245 183.833 20.2318 184.128 19.6385C184.423 19.0452 184.837 18.5845 185.371 18.2564C185.904 17.9283 186.529 17.7642 187.245 17.7642C187.961 17.7642 188.586 17.9283 189.119 18.2564C189.653 18.5845 190.067 19.0452 190.362 19.6385C190.657 20.2318 190.805 20.9245 190.805 21.7166C190.805 22.5054 190.657 23.1948 190.362 23.7848C190.067 24.3748 189.653 24.8338 189.119 25.1619C188.586 25.4901 187.961 25.6541 187.245 25.6541ZM187.25 24.4062C187.714 24.4062 188.098 24.2836 188.403 24.0384C188.708 23.7931 188.934 23.4666 189.079 23.0589C189.229 22.6513 189.303 22.2022 189.303 21.7116C189.303 21.2244 189.229 20.777 189.079 20.3693C188.934 19.9583 188.708 19.6286 188.403 19.38C188.098 19.1314 187.714 19.0071 187.25 19.0071C186.782 19.0071 186.395 19.1314 186.086 19.38C185.782 19.6286 185.555 19.9583 185.405 20.3693C185.26 20.777 185.187 21.2244 185.187 21.7116C185.187 22.2022 185.26 22.6513 185.405 23.0589C185.555 23.4666 185.782 23.7931 186.086 24.0384C186.395 24.2836 186.782 24.4062 187.25 24.4062Z" fill="#0A0D14"/>
<path d="M640 19.121L643.713 22.8335L644.773 21.773L640 17L635.227 21.773L636.288 22.8335L640 19.121Z" fill="#525866"/>
</svg>
