<svg width="28" height="28" viewBox="0 0 28 28" fill="none" xmlns="http://www.w3.org/2000/svg">
<path d="M24.5 16.0998H22.4V8.9997L14.0756 16.4547L5.6 8.9766V21.3498H16.1V23.4498H4.55C4.27152 23.4498 4.00445 23.3392 3.80754 23.1423C3.61062 22.9454 3.5 22.6783 3.5 22.3998V5.5998C3.5 5.32133 3.61062 5.05426 3.80754 4.85734C4.00445 4.66043 4.27152 4.5498 4.55 4.5498H23.45C23.7285 4.5498 23.9955 4.66043 24.1925 4.85734C24.3894 5.05426 24.5 5.32133 24.5 5.5998V16.0998ZM6.13655 6.6498L14.064 13.6449L21.8771 6.6498H6.13655ZM21.35 24.4998L17.6372 20.787L19.1229 19.3023L21.35 21.5304L25.0628 17.8176L26.5475 19.3023L21.35 24.4998Z" fill="#525866"/>
</svg>
