<svg width="28" height="28" viewBox="0 0 28 28" fill="none" xmlns="http://www.w3.org/2000/svg">
<path d="M16.0996 16.3648V18.5593C15.1493 18.2233 14.1322 18.1202 13.1338 18.2588C12.1354 18.3973 11.1848 18.7734 10.3618 19.3554C9.53886 19.9374 8.86757 20.7085 8.40433 21.6037C7.94109 22.4989 7.69942 23.4922 7.69961 24.5002L5.59961 24.4991C5.59928 23.217 5.89248 21.9517 6.45672 20.8004C7.02097 19.6491 7.84129 18.6422 8.85484 17.8569C9.86838 17.0716 11.0482 16.5287 12.304 16.2699C13.5598 16.0111 14.8582 16.0432 16.0996 16.3637V16.3648ZM13.9996 15.0502C10.5189 15.0502 7.69961 12.2309 7.69961 8.7502C7.69961 5.26945 10.5189 2.4502 13.9996 2.4502C17.4804 2.4502 20.2996 5.26945 20.2996 8.7502C20.2996 12.2309 17.4804 15.0502 13.9996 15.0502ZM13.9996 12.9502C16.3201 12.9502 18.1996 11.0707 18.1996 8.7502C18.1996 6.4297 16.3201 4.5502 13.9996 4.5502C11.6791 4.5502 9.79961 6.4297 9.79961 8.7502C9.79961 11.0707 11.6791 12.9502 13.9996 12.9502ZM20.9149 19.2502L18.9945 17.3308L20.4802 15.845L24.9343 20.3002L20.4802 24.7553L18.9945 23.2696L20.9149 21.3502H17.1496V19.2502H20.9149Z" fill="#525866"/>
</svg>
