<svg width="22" height="22" viewBox="0 0 22 22" fill="none" xmlns="http://www.w3.org/2000/svg">
<path d="M11 21.5C5.20085 21.5 0.5 16.7991 0.5 11C0.5 5.20085 5.20085 0.5 11 0.5C16.7991 0.5 21.5 5.20085 21.5 11C21.5 16.7991 16.7991 21.5 11 21.5ZM11 19.4C13.2278 19.4 15.3644 18.515 16.9397 16.9397C18.515 15.3644 19.4 13.2278 19.4 11C19.4 8.77218 18.515 6.63561 16.9397 5.0603C15.3644 3.485 13.2278 2.6 11 2.6C8.77218 2.6 6.63561 3.485 5.0603 5.0603C3.485 6.63561 2.6 8.77218 2.6 11C2.6 13.2278 3.485 15.3644 5.0603 16.9397C6.63561 18.515 8.77218 19.4 11 19.4ZM9.95 11.8316C9.39728 11.5904 8.94447 11.1662 8.66772 10.6304C8.39097 10.0946 8.30716 9.47978 8.43037 8.88943C8.55358 8.29909 8.87631 7.76917 9.34428 7.38878C9.81225 7.0084 10.3969 6.80075 11 6.80075C11.6031 6.80075 12.1877 7.0084 12.6557 7.38878C13.1237 7.76917 13.4464 8.29909 13.5696 8.88943C13.6928 9.47978 13.609 10.0946 13.3323 10.6304C13.0555 11.1662 12.6027 11.5904 12.05 11.8316V15.2H9.95V11.8316Z" fill="#525866"/>
</svg>
