<svg width="30" height="30" viewBox="0 0 30 30" fill="none" xmlns="http://www.w3.org/2000/svg">
<path d="M10.6013 0.111823C4.81121 0.111823 0.100586 4.8224 0.100586 10.6125V19.387C0.100586 25.1771 4.8112 29.8877 10.6013 29.8877H19.3758C25.1659 29.8877 29.8766 25.1771 29.8766 19.387V15.4926L25.2042 18.2667V19.387C25.2042 22.6008 22.5896 25.2153 19.3758 25.2153H10.6014C7.38763 25.2153 4.77301 22.6008 4.77301 19.387V10.6125C4.77301 7.39876 7.38763 4.78425 10.6014 4.78425H19.3758C21.4891 4.78425 23.4579 5.96105 24.4781 7.80413L14.8543 13.6374L12.175 9.21708L11.1438 9.84211C11.1445 9.84324 11.1453 9.84428 11.146 9.84541C11.4532 10.3605 11.2724 11.0345 10.7422 11.3506C10.2156 11.6646 9.54281 11.5073 9.2327 11.0005L8.17926 11.639L13.2804 20.055L29.8612 10.0049L29.8455 9.79988C29.7428 8.45771 29.3868 7.172 28.7932 5.97102L28.8001 5.96681L28.4854 5.3752L28.4802 5.37833C26.6057 2.1208 23.1495 0.111816 19.3758 0.111816L10.6013 0.111823Z" fill="#375DFB"/>
</svg>
